<svg width="500" height="590" viewBox="0 0 500 590" fill="none" xmlns="http://www.w3.org/2000/svg">
<path d="M562.582 545.096C562.582 545.266 442.771 545.403 295.013 545.403C147.203 545.403 27.4185 545.265 27.4185 545.096C27.4185 544.928 147.203 544.789 295.013 544.789C442.771 544.788 562.582 544.926 562.582 545.096Z" fill="#263238"/>
<path d="M218.28 545.06H53.3891C47.6838 545.06 43.057 540.434 43.057 534.729V392.757C43.057 387.051 47.6826 382.426 53.3891 382.426H218.28C223.985 382.426 228.612 387.052 228.612 392.757V534.729C228.612 540.434 223.985 545.06 218.28 545.06Z" fill="#455A64"/>
<g opacity="0.3">
<path d="M43.0582 489.075H110.646C113.245 489.075 115.35 486.968 115.35 484.371H43.2458L43.0582 489.075Z" fill="black"/>
</g>
<path d="M112.25 484.953H43.9703C40.7218 484.953 38.0869 482.319 38.0869 479.069V448.629C38.0869 445.38 40.7206 442.745 43.9703 442.745H112.25C115.5 442.745 118.133 445.379 118.133 448.629V479.069C118.133 482.319 115.5 484.953 112.25 484.953Z" fill="#455A64"/>
<path d="M112.25 484.953C112.237 484.895 113.105 485.021 114.543 484.421C115.244 484.107 116.066 483.568 116.769 482.686C117.46 481.808 118.012 480.56 118.012 479.098C117.989 473.141 117.956 464.566 117.915 453.981C117.912 452.655 117.908 451.298 117.904 449.912C117.895 449.218 117.93 448.507 117.838 447.843C117.745 447.169 117.526 446.506 117.189 445.898C116.521 444.681 115.36 443.705 113.984 443.268C113.291 443.038 112.583 442.984 111.813 442.998C111.047 442.999 110.275 443 109.496 443.003C103.259 443.012 96.5983 443.022 89.5891 443.031C75.566 443.038 60.154 443.046 43.9751 443.056C42.0505 443.05 40.1778 444.099 39.2091 445.739C38.7076 446.544 38.4373 447.478 38.4031 448.419C38.3807 449.388 38.396 450.393 38.3913 451.374C38.3901 455.314 38.3878 459.197 38.3866 463.012C38.3842 466.827 38.3819 470.575 38.3795 474.244C38.3925 476.066 38.3453 477.926 38.4055 479.659C38.586 481.356 39.5642 482.937 40.9932 483.811C41.6989 484.254 42.4989 484.538 43.3166 484.634C44.1179 484.713 45.0206 484.661 45.8619 484.679C47.5694 484.681 49.2544 484.684 50.9158 484.686C54.2375 484.692 57.4613 484.697 60.5789 484.702C66.8116 484.716 72.6196 484.727 77.9237 484.739C88.5083 484.781 97.0821 484.814 103.039 484.837C105.983 484.862 108.279 484.882 109.867 484.895C110.629 484.908 111.219 484.919 111.643 484.926C112.045 484.932 112.25 484.953 112.25 484.953C112.25 484.953 112.045 484.974 111.645 484.985C111.22 484.992 110.63 485.002 109.869 485.015C108.28 485.028 105.985 485.048 103.04 485.073C97.0833 485.097 88.5094 485.13 77.9249 485.171C72.6208 485.183 66.8128 485.195 60.58 485.209C57.4625 485.214 54.2375 485.218 50.917 485.224C49.2568 485.227 47.5717 485.229 45.8631 485.231C44.9981 485.215 44.1757 485.274 43.2541 485.19C42.3537 485.085 41.4711 484.776 40.6935 484.289C39.1194 483.332 38.035 481.592 37.8332 479.718C37.7636 477.866 37.8108 476.091 37.7942 474.243C37.7919 470.573 37.7895 466.826 37.7871 463.011C37.786 459.196 37.7836 455.312 37.7824 451.372C37.7872 450.382 37.7706 449.41 37.7931 448.395C37.8296 447.353 38.1305 446.314 38.6863 445.421C39.7589 443.602 41.8405 442.434 43.9763 442.442C60.1541 442.45 75.5672 442.459 89.5903 442.467C96.5995 442.476 103.261 442.487 109.497 442.495C110.276 442.496 111.049 442.498 111.814 442.5C112.574 442.487 113.399 442.551 114.137 442.803C115.632 443.285 116.886 444.349 117.605 445.673C117.967 446.333 118.202 447.054 118.3 447.783C118.396 448.525 118.353 449.224 118.361 449.915C118.358 451.303 118.354 452.66 118.35 453.985C118.309 464.57 118.275 473.145 118.251 479.102C118.232 480.625 117.639 481.912 116.912 482.805C116.172 483.702 115.316 484.237 114.592 484.539C113.861 484.843 113.255 484.909 112.858 484.958C112.455 484.965 112.25 484.953 112.25 484.953Z" fill="#263238"/>
<g opacity="0.3">
<path d="M98.4038 480.271C104.948 480.271 110.253 474.965 110.253 468.421C110.253 461.877 104.948 456.571 98.4038 456.571C91.8594 456.571 86.5542 461.877 86.5542 468.421C86.5542 474.965 91.8594 480.271 98.4038 480.271Z" fill="black"/>
</g>
<path d="M106.779 472.673C111.406 468.046 111.406 460.543 106.779 455.916C102.151 451.288 94.6484 451.288 90.0209 455.916C85.3934 460.543 85.3934 468.046 90.0209 472.673C94.6484 477.301 102.151 477.301 106.779 472.673Z" fill="#EBEBEB"/>
<path d="M110.253 464.297C110.174 464.303 110.237 463.241 109.767 461.433C109.302 459.661 108.109 457.059 105.441 455.05C104.12 454.07 102.457 453.238 100.543 452.908C98.6422 452.589 96.4994 452.654 94.4627 453.434C93.4373 453.793 92.4484 454.333 91.541 455.014C90.623 455.682 89.7887 456.511 89.1019 457.471C87.6824 459.362 86.8835 461.792 86.8599 464.296C86.8824 466.801 87.6812 469.231 89.1019 471.122C89.7887 472.083 90.623 472.912 91.541 473.58C92.4484 474.262 93.4373 474.802 94.4627 475.16C96.4994 475.94 98.6422 476.005 100.543 475.686C102.457 475.355 104.12 474.524 105.441 473.543C108.109 471.535 109.301 468.934 109.766 467.161C110.237 465.353 110.174 464.291 110.253 464.297C110.253 464.297 110.406 465.355 109.999 467.219C109.596 469.044 108.437 471.759 105.706 473.888C104.352 474.928 102.633 475.818 100.638 476.187C98.6564 476.543 96.4144 476.495 94.2703 475.692C93.1918 475.323 92.1499 474.762 91.1917 474.051C90.2229 473.353 89.3438 472.485 88.617 471.478C87.1172 469.494 86.2676 466.932 86.2463 464.295C86.2688 461.66 87.1184 459.098 88.6181 457.113C89.345 456.105 90.2241 455.238 91.1929 454.541C92.1511 453.83 93.1918 453.269 94.2703 452.899C96.4144 452.097 98.6564 452.049 100.638 452.405C102.632 452.773 104.351 453.663 105.706 454.704C108.439 456.832 109.597 459.547 110 461.373C110.406 463.238 110.253 464.297 110.253 464.297Z" fill="#263238"/>
<path d="M85.9665 176.771L78.1608 175.829C73.219 179.13 67.2305 181.009 60.7546 180.846C45.4819 180.462 32.7733 168.288 31.7007 153.048C30.4617 135.439 44.6063 120.541 62.3854 120.998C77.4788 121.388 90.0836 133.275 91.378 148.318C92.0211 155.782 89.8865 162.778 85.8792 168.359L85.8922 168.348L85.9665 176.771Z" fill="white"/>
<path d="M85.9665 176.771C85.9665 176.771 85.9524 176.572 85.9418 176.202C85.9323 175.813 85.9193 175.273 85.9016 174.574C85.8745 173.133 85.8344 171.046 85.7836 168.349L85.9618 168.433C85.9618 168.433 85.9536 168.44 85.9488 168.444C85.9016 168.483 85.8332 168.476 85.7943 168.429C85.7624 168.39 85.7624 168.333 85.7907 168.294C87.9159 165.277 90.2735 160.8 91.0417 154.956C91.4347 152.051 91.3875 148.844 90.7916 145.508C90.1673 142.181 88.9047 138.744 86.9247 135.508C84.9329 132.284 82.2071 129.281 78.8429 126.863C75.4858 124.456 71.4927 122.577 67.1137 121.795C62.7536 120.976 58.0631 121.14 53.5437 122.381C49.0101 123.594 44.7232 126.059 41.1832 129.418C39.3447 131.074 37.865 133.049 36.5057 135.05C35.9027 136.098 35.282 137.136 34.7663 138.216L34.0583 139.863L33.7102 140.684L33.4459 141.534C31.9426 146.032 31.6075 150.76 32.2164 155.197C32.8052 159.653 34.5457 163.757 36.8349 167.237C39.1406 170.722 42.0682 173.578 45.2412 175.702C48.426 177.815 51.8374 179.209 55.1579 179.957C55.9957 180.105 56.8205 180.249 57.6312 180.391C58.4442 180.515 59.2561 180.532 60.0467 180.606C61.6314 180.729 63.1666 180.656 64.6274 180.52C70.505 179.941 75.048 177.741 78.0995 175.741C78.1207 175.727 78.1479 175.721 78.1715 175.723C80.6542 176.05 82.5858 176.304 83.9228 176.481C84.5694 176.569 85.0709 176.638 85.4344 176.689C85.7801 176.737 85.9665 176.771 85.9665 176.771C85.9665 176.771 85.806 176.764 85.4733 176.731C85.1146 176.694 84.619 176.643 83.9818 176.576C82.6259 176.428 80.6671 176.212 78.149 175.936L78.221 175.918C75.1743 177.971 70.6077 180.238 64.6652 180.863C63.189 181.011 61.6349 181.093 60.0301 180.98C59.2289 180.911 58.4065 180.896 57.5816 180.776C56.7592 180.636 55.9226 180.493 55.0718 180.349C51.7017 179.607 48.2337 178.21 44.9934 176.076C41.7649 173.933 38.7831 171.043 36.429 167.507C34.0926 163.976 32.3131 159.805 31.7054 155.272C31.0765 150.758 31.4128 145.945 32.9385 141.364L33.2076 140.499L33.5615 139.662C33.8011 139.106 34.0406 138.546 34.2814 137.986C34.8053 136.886 35.4354 135.827 36.0502 134.761C37.432 132.723 38.94 130.713 40.8103 129.025C44.414 125.605 48.7824 123.098 53.3985 121.867C58.0017 120.607 62.7725 120.447 67.2104 121.288C71.6661 122.092 75.7241 124.012 79.1296 126.468C82.541 128.935 85.2998 131.992 87.3094 135.274C89.3071 138.567 90.5733 142.059 91.1892 145.437C91.778 148.823 91.8052 152.069 91.3886 155.006C90.5709 160.914 88.1472 165.414 85.9689 168.425L85.8108 168.275C85.8155 168.272 85.8238 168.264 85.8238 168.264C85.871 168.226 85.9394 168.233 85.9783 168.279C85.9949 168.299 86.0031 168.325 86.0031 168.348C85.9984 171.075 85.996 173.186 85.9937 174.642C85.989 175.329 85.9854 175.861 85.9819 176.245C85.9771 176.601 85.9665 176.771 85.9665 176.771Z" fill="#263238"/>
<path d="M48.3399 152.756L52.0899 148.743L59.8024 155.143L74.0167 140.501L77.7538 144.261L59.5027 162.648L48.3399 152.756Z" fill="#FFC727"/>
<path d="M114.355 138.591C116.156 126.927 126.613 118.602 138.383 119.46L139.553 119.545C152.111 121.2 157.721 132.79 155.719 145.298L151.347 189.694L151.135 198.87L121.225 201.583L121.868 182.207C121.868 182.207 109.88 179.439 110.614 167.305C110.968 161.448 112.68 149.44 114.355 138.591Z" fill="#FFBF9D"/>
<path d="M121.769 182.184C121.769 182.184 129.477 183.214 137.991 178.692C137.991 178.692 133.777 187.443 121.759 185.47L121.769 182.184Z" fill="#FFC727"/>
<path d="M119.052 150.681C118.953 151.593 119.644 152.429 120.595 152.549C121.543 152.67 122.394 152.03 122.492 151.119C122.591 150.207 121.901 149.37 120.952 149.25C120.002 149.128 119.152 149.769 119.052 150.681Z" fill="#263238"/>
<path d="M116.528 144.712C116.727 144.952 118.108 144.078 119.972 144.218C121.834 144.332 123.132 145.39 123.35 145.177C123.456 145.082 123.267 144.659 122.705 144.182C122.15 143.707 121.181 143.215 120.02 143.135C118.859 143.057 117.852 143.414 117.259 143.81C116.654 144.209 116.43 144.603 116.528 144.712Z" fill="#263238"/>
<path d="M136.508 152.346C136.409 153.258 137.101 154.093 138.05 154.214C138.999 154.336 139.85 153.696 139.949 152.784C140.048 151.873 139.357 151.036 138.408 150.915C137.458 150.792 136.607 151.434 136.508 152.346Z" fill="#263238"/>
<path d="M134.815 146.393C135.013 146.635 136.397 145.761 138.258 145.901C140.12 146.014 141.418 147.073 141.636 146.859C141.743 146.766 141.556 146.342 140.99 145.866C140.435 145.391 139.466 144.899 138.307 144.819C137.145 144.741 136.139 145.097 135.545 145.493C134.942 145.89 134.717 146.285 134.815 146.393Z" fill="#263238"/>
<path d="M127.047 159.717C127.064 159.612 125.92 159.326 124.062 158.95C123.59 158.866 123.146 158.738 123.089 158.408C123.002 158.056 123.239 157.558 123.509 157.021C124.04 155.903 124.596 154.731 125.18 153.501C127.51 148.486 129.232 144.349 129.029 144.257C128.826 144.165 126.774 148.155 124.445 153.171C123.882 154.409 123.344 155.588 122.832 156.717C122.613 157.244 122.259 157.836 122.45 158.566C122.552 158.931 122.883 159.215 123.181 159.319C123.48 159.435 123.747 159.459 123.981 159.49C125.862 159.727 127.033 159.822 127.047 159.717Z" fill="#263238"/>
<path d="M132.436 161.404C132.134 161.364 131.983 163.386 130.148 164.695C128.315 166.008 126.176 165.625 126.141 165.907C126.103 166.032 126.591 166.334 127.5 166.426C128.39 166.522 129.715 166.33 130.837 165.529C131.957 164.726 132.496 163.585 132.626 162.76C132.764 161.92 132.575 161.402 132.436 161.404Z" fill="#263238"/>
<path d="M134.866 139.057C135.013 139.577 136.89 139.472 139.056 139.895C141.231 140.274 142.946 141.042 143.27 140.609C143.415 140.401 143.142 139.902 142.465 139.359C141.795 138.819 140.701 138.27 139.4 138.029C138.099 137.79 136.882 137.911 136.062 138.177C135.236 138.443 134.804 138.812 134.866 139.057Z" fill="#263238"/>
<path d="M117.606 139.37C117.903 139.817 119.218 139.471 120.762 139.563C122.311 139.601 123.592 140.055 123.925 139.634C124.072 139.429 123.898 138.99 123.356 138.547C122.823 138.107 121.905 137.712 120.843 137.667C119.779 137.623 118.833 137.94 118.264 138.334C117.687 138.731 117.476 139.154 117.606 139.37Z" fill="#263238"/>
<path d="M152.913 156.956C153.125 155.091 154.845 153.732 156.697 154.044C158.941 154.424 161.364 155.891 160.875 160.552C160.007 168.82 151.885 166.243 151.895 166.004C151.901 165.842 152.518 160.413 152.913 156.956Z" fill="#FFBF9D"/>
<path d="M154.019 163.082C154.058 163.059 154.153 163.199 154.385 163.336C154.611 163.469 155.012 163.587 155.459 163.471C156.366 163.242 157.248 161.934 157.444 160.447C157.544 159.698 157.461 158.964 157.257 158.343C157.068 157.712 156.722 157.248 156.29 157.124C155.863 156.977 155.524 157.207 155.398 157.43C155.262 157.649 155.297 157.82 155.252 157.83C155.228 157.847 155.09 157.673 155.192 157.338C155.244 157.177 155.361 156.992 155.572 156.854C155.788 156.713 156.088 156.662 156.391 156.728C157.024 156.839 157.536 157.485 157.761 158.167C158.021 158.855 158.131 159.681 158.018 160.524C157.791 162.184 156.773 163.654 155.543 163.874C154.944 163.965 154.478 163.738 154.248 163.516C154.013 163.284 153.99 163.094 154.019 163.082Z" fill="#FFC727"/>
<path d="M159.538 148.527C158.854 150.897 159.103 154.834 156.981 154.299C152.776 153.24 153.785 161.859 151.766 161.015C149.775 160.183 148.016 157.728 147.891 152.425C147.732 145.692 150.442 140.832 147.789 133.119C146.012 130.025 142.846 127.919 139.279 127.836C135.712 127.754 132.265 129.559 130.346 132.568C129.968 130.219 128.824 126.675 126.732 125.544C124.639 124.412 121.844 124.545 120.043 126.1C118.24 127.654 117.746 130.619 119.167 132.529C118.209 132.841 117.064 132.429 116.524 131.578C116.435 132.673 116.827 133.799 117.574 134.605C116.715 134.388 115.941 133.849 115.441 133.118C115.649 134.09 115.858 135.063 116.067 136.035C112.521 136.13 109.052 132.696 108.067 129.641C106.574 125.01 107.726 120.34 110.312 116.219C112.9 112.099 117.534 109.196 122.399 109.241C127.264 109.285 131.339 111.59 133.215 116.079C136.373 113.844 142.768 113.07 146.289 114.67C149.81 116.27 152.365 119.825 152.758 123.673C154.96 122.742 157.604 123.466 159.459 124.974C159.614 125.099 159.764 125.23 159.91 125.364C162.454 127.714 163.496 131.288 162.847 134.69C162.59 136.039 162.124 137.435 161.849 138.518C161.031 141.733 159.538 148.527 159.538 148.527Z" fill="#263238"/>
<path d="M115.97 131.361C115.962 131.371 115.865 131.294 115.688 131.137C115.51 130.981 115.262 130.732 114.991 130.372C114.441 129.668 113.792 128.47 113.602 126.851C113.403 125.264 113.773 123.164 115.253 121.546C116.669 119.941 119.066 118.798 121.577 119.158C122.817 119.332 123.959 119.83 124.931 120.472C125.906 121.118 126.731 121.901 127.402 122.732C128.762 124.39 129.54 126.196 129.94 127.75C130.348 129.311 130.39 130.628 130.353 131.522C130.323 131.97 130.294 132.316 130.251 132.548C130.214 132.782 130.189 132.902 130.178 132.901C130.076 132.91 130.533 130.892 129.69 127.819C129.265 126.302 128.48 124.549 127.143 122.948C125.833 121.365 123.899 119.867 121.526 119.52C119.158 119.179 116.867 120.253 115.504 121.771C114.084 123.298 113.701 125.284 113.859 126.825C114.009 128.392 114.602 129.575 115.105 130.29C115.613 131.013 115.998 131.334 115.97 131.361Z" fill="#455A64"/>
<path d="M114.347 135.066C114.335 135.072 114.249 134.933 114.095 134.663C113.943 134.391 113.72 133.99 113.446 133.467C112.911 132.418 112.106 130.892 111.499 128.85C111.205 127.829 110.977 126.673 110.955 125.414C110.938 124.161 111.111 122.793 111.674 121.479C112.226 120.164 113.217 118.952 114.514 118.098C115.811 117.248 117.375 116.708 119.015 116.608C120.657 116.498 122.259 116.82 123.698 117.356C125.138 117.903 126.425 118.671 127.534 119.541C129.761 121.279 131.224 123.527 131.724 125.615C132.241 127.707 131.912 129.494 131.48 130.592C131.27 131.151 131.022 131.545 130.861 131.812C130.679 132.067 130.58 132.197 130.569 132.19C130.532 132.168 130.955 131.65 131.346 130.543C131.729 129.453 132.008 127.704 131.473 125.679C130.956 123.663 129.513 121.493 127.325 119.808C125.165 118.137 122.227 116.782 119.037 116.975C117.461 117.07 115.955 117.589 114.71 118.399C113.465 119.214 112.52 120.358 111.982 121.613C111.434 122.868 111.253 124.19 111.257 125.41C111.266 126.638 111.473 127.77 111.747 128.781C112.312 130.801 113.077 132.338 113.573 133.405C113.814 133.91 114.009 134.316 114.159 134.631C114.294 134.909 114.357 135.06 114.347 135.066Z" fill="#455A64"/>
<path d="M156.615 143.169C156.572 143.116 157.379 142.549 158.385 141.352C159.391 140.171 160.545 138.278 161.029 135.948C161.511 133.616 161.206 131.421 160.753 129.937C160.305 128.438 159.79 127.597 159.851 127.565C159.87 127.553 160.016 127.752 160.238 128.137C160.46 128.522 160.74 129.105 160.999 129.859C161.525 131.353 161.885 133.614 161.386 136.022C160.886 138.429 159.656 140.36 158.579 141.522C158.041 142.11 157.552 142.533 157.196 142.798C156.842 143.063 156.628 143.187 156.615 143.169Z" fill="#455A64"/>
<path d="M149.072 142.931C149.056 142.896 149.486 142.747 150.141 142.3C150.784 141.855 151.668 141.06 152.229 139.784L152.577 138.992L152.5 139.856C152.395 141.022 152.274 142.365 152.143 143.821L151.873 143.659C152.85 142.996 153.801 142.099 154.58 141.009C155.572 139.632 156.175 138.091 156.431 136.646C156.685 135.196 156.612 133.85 156.408 132.755C155.985 130.548 155.159 129.363 155.237 129.33C155.248 129.323 155.301 129.394 155.394 129.533C155.49 129.671 155.612 129.885 155.762 130.166C156.056 130.729 156.417 131.587 156.661 132.704C156.902 133.818 157.006 135.202 156.764 136.703C156.519 138.199 155.904 139.798 154.878 141.222C154.075 142.349 153.085 143.272 152.068 143.948L151.759 144.154L151.797 143.787C151.952 142.333 152.095 140.992 152.218 139.829L152.488 139.901C151.865 141.228 150.914 142.018 150.227 142.434C149.879 142.646 149.587 142.772 149.387 142.847C149.186 142.917 149.076 142.944 149.072 142.931Z" fill="#455A64"/>
<path d="M146.773 125.491C146.7 125.541 146.347 124.311 144.856 123.1C144.117 122.512 143.101 121.958 141.876 121.713C140.656 121.463 139.241 121.577 137.889 122.075C136.537 122.581 135.388 123.402 134.549 124.331C133.701 125.257 133.135 126.256 132.751 127.128C132.001 128.891 131.923 130.11 131.848 130.095C131.828 130.093 131.828 129.792 131.907 129.254C131.987 128.717 132.158 127.942 132.512 127.031C132.873 126.125 133.432 125.08 134.298 124.107C135.155 123.128 136.348 122.26 137.76 121.732C139.174 121.212 140.662 121.102 141.942 121.384C143.226 121.659 144.273 122.265 145.018 122.902C145.763 123.548 146.221 124.215 146.469 124.701C146.591 124.947 146.676 125.14 146.718 125.278C146.767 125.413 146.785 125.486 146.773 125.491Z" fill="#455A64"/>
<path d="M144.837 119.168C144.799 119.237 144.031 118.627 142.552 118.287C141.103 117.936 138.893 117.989 136.866 119.09C134.84 120.201 133.543 121.953 132.838 123.277C132.121 124.616 131.89 125.546 131.825 125.525C131.804 125.519 131.839 125.283 131.952 124.866C132.064 124.45 132.271 123.856 132.608 123.159C133.268 121.777 134.574 119.929 136.691 118.769C138.816 117.616 141.13 117.607 142.615 118.037C143.368 118.245 143.94 118.523 144.303 118.758C144.67 118.991 144.848 119.152 144.837 119.168Z" fill="#455A64"/>
<path d="M118.203 509.918L119.037 532.611C119.037 532.611 96.2512 541.08 95.9963 545.289L140.055 545.252L140.206 509.84L118.203 509.918Z" fill="#263238"/>
<path d="M132.659 530.69C133.512 530.922 134.102 531.88 133.905 532.742C133.708 533.603 132.738 534.212 131.882 533.995C131.025 533.778 130.282 532.65 130.574 531.814C130.867 530.98 132.043 530.329 132.823 530.745" fill="#E0E0E0"/>
<path d="M140.055 545.251L139.932 541.68L97.7359 543.051C97.7359 543.051 95.7748 543.907 95.9978 545.287L140.055 545.251Z" fill="#263238"/>
<path d="M118.322 532.387C118.329 532.601 119.405 532.698 120.465 533.39C121.542 534.053 122.089 534.985 122.287 534.899C122.485 534.857 122.163 533.571 120.866 532.757C119.577 531.931 118.276 532.189 118.322 532.387Z" fill="white"/>
<path d="M113.704 534.302C113.655 534.51 114.586 534.875 115.318 535.785C116.076 536.672 116.261 537.656 116.476 537.647C116.677 537.681 116.825 536.421 115.894 535.307C114.973 534.186 113.707 534.097 113.704 534.302Z" fill="white"/>
<path d="M111.083 539.835C111.279 539.881 111.577 538.806 111.024 537.628C110.479 536.446 109.464 535.982 109.373 536.161C109.252 536.338 109.905 536.97 110.344 537.944C110.807 538.907 110.869 539.815 111.083 539.835Z" fill="white"/>
<path d="M118.707 527.194C118.798 527.39 119.784 527.093 121 527.174C122.217 527.231 123.164 527.638 123.276 527.454C123.401 527.298 122.476 526.503 121.042 526.427C119.61 526.339 118.601 527.026 118.707 527.194Z" fill="white"/>
<path d="M168.76 511.995L170.514 539.412L165.647 561.498C165.297 563.09 166.367 564.647 167.979 564.888C168.882 565.023 169.787 564.72 170.419 564.061C174.443 559.872 189.171 544.387 188.93 542.388C188.651 540.073 189.001 513.345 189.001 513.345L168.76 511.995Z" fill="#263238"/>
<path d="M167.98 564.887L188.855 540.534L188.903 541.698C188.944 542.703 188.631 543.692 188.012 544.484C186.353 546.603 181.643 552.357 170.503 564.058C169.855 564.739 168.905 565.051 167.98 564.887Z" fill="#263238"/>
<g opacity="0.6">
<path d="M182.859 531.911C182.19 532.415 182.008 533.464 182.484 534.153C182.96 534.841 184.026 535.036 184.702 534.544C185.379 534.051 185.636 532.798 185.087 532.168C184.537 531.537 183.273 531.378 182.734 532.017" fill="white"/>
</g>
<path d="M173.762 552.636C173.61 552.719 172.933 551.307 171.268 550.6C169.625 549.843 168.124 550.293 168.083 550.125C168.056 550.059 168.396 549.832 169.034 549.715C169.666 549.594 170.6 549.646 171.512 550.049C172.424 550.453 173.09 551.108 173.427 551.657C173.769 552.208 173.829 552.612 173.762 552.636Z" fill="white"/>
<path d="M171.958 556.392C171.832 556.516 170.915 555.66 169.478 555.312C168.049 554.932 166.834 555.245 166.782 555.076C166.697 554.939 167.995 554.303 169.626 554.726C171.262 555.133 172.097 556.313 171.958 556.392Z" fill="white"/>
<path d="M177.209 547.776C177.085 547.912 175.681 546.588 173.494 545.85C171.32 545.079 169.396 545.251 169.383 545.068C169.332 544.923 171.356 544.458 173.691 545.28C176.034 546.077 177.338 547.693 177.209 547.776Z" fill="white"/>
<path d="M177.372 539.397C177.306 539.564 175.763 538.993 173.787 539.003C171.81 538.985 170.266 539.55 170.2 539.383C170.118 539.252 171.664 538.386 173.788 538.399C175.912 538.394 177.453 539.266 177.372 539.397Z" fill="white"/>
<path d="M177.061 531.335C176.982 531.497 175.42 530.645 173.34 530.825C171.256 530.96 169.84 532.037 169.737 531.889C169.69 531.833 169.976 531.477 170.593 531.085C171.205 530.693 172.173 530.311 173.294 530.224C174.416 530.141 175.428 530.373 176.093 530.668C176.763 530.963 177.099 531.274 177.061 531.335Z" fill="white"/>
<path d="M173.325 529.29C173.29 529.291 173.213 528.926 173.245 528.253C173.279 527.585 173.432 526.6 173.959 525.5C174.235 524.977 174.517 524.309 175.268 523.916C175.642 523.718 176.212 523.765 176.553 524.116C176.89 524.457 177.011 524.903 177.038 525.337C177.08 527.08 175.654 528.828 173.704 529.158C171.745 529.454 169.916 528.404 169.075 526.931C168.889 526.549 168.751 526.076 168.945 525.604C169.135 525.127 169.686 524.918 170.082 524.969C170.902 525.058 171.435 525.506 171.928 525.835C172.905 526.557 173.524 527.333 173.89 527.891C174.257 528.454 174.382 528.805 174.351 528.822C174.258 528.898 173.602 527.502 171.684 526.184C171.201 525.884 170.645 525.499 170.056 525.469C169.769 525.453 169.527 525.577 169.435 525.812C169.339 526.037 169.41 526.379 169.572 526.679C170.281 527.884 171.954 528.839 173.606 528.562C175.252 528.3 176.503 526.763 176.483 525.36C176.473 525.022 176.37 524.686 176.181 524.492C175.995 524.302 175.722 524.26 175.474 524.372C174.949 524.609 174.614 525.2 174.341 525.692C173.265 527.756 173.448 529.313 173.325 529.29Z" fill="white"/>
<path d="M98.897 318.11C98.897 318.11 95.2591 330.964 96.1075 346.744C96.4356 352.85 116.048 529.289 116.048 529.289L141.003 527.045L136.689 362.082L137.736 363.016C137.736 363.016 152.601 432.418 153.585 443.391C154.47 453.253 166.336 532.476 166.336 532.476L190.55 531.326L185.064 431.176L177.72 340.254L174.778 313.769L98.897 318.11Z" fill="#263238"/>
<path d="M141.489 347.86C141.504 347.896 141.091 348.126 140.315 348.487C139.536 348.833 138.393 349.36 136.848 349.612C136.078 349.734 135.203 349.754 134.289 349.571C133.381 349.389 132.415 348.978 131.643 348.225C130.87 347.471 130.386 346.429 130.087 345.352C129.785 344.265 129.623 343.139 129.42 341.994C128.64 337.399 128.136 333.208 127.857 330.169C127.716 328.649 127.629 327.417 127.585 326.564C127.543 325.711 127.54 325.237 127.58 325.235C127.622 325.232 127.701 325.698 127.813 326.543C127.937 327.511 128.089 328.708 128.27 330.123C128.654 333.145 129.222 337.314 129.999 341.894C130.396 344.159 130.647 346.462 132.025 347.84C133.403 349.193 135.357 349.377 136.792 349.2C138.274 349.013 139.429 348.554 140.228 348.276C141.027 347.981 141.473 347.822 141.489 347.86Z" fill="#455A64"/>
<path d="M133.626 326.172C133.617 326.146 133.809 326.032 134.2 326.016C134.587 325.996 135.173 326.127 135.743 326.552C136.289 326.973 136.862 327.721 136.864 328.724C136.886 329.74 136.071 330.72 135.03 331.068C133.999 331.444 132.75 331.184 132.135 330.375C131.512 329.589 131.496 328.647 131.661 327.977C131.843 327.291 132.22 326.823 132.535 326.599C132.852 326.368 133.072 326.338 133.083 326.364C133.157 326.442 132.29 326.813 132.068 328.066C131.97 328.657 132.048 329.447 132.551 330.027C133.033 330.621 133.981 330.814 134.836 330.513C135.693 330.217 136.315 329.475 136.322 328.71C136.354 327.943 135.924 327.277 135.479 326.874C134.525 326.029 133.616 326.279 133.626 326.172Z" fill="#455A64"/>
<path d="M177.373 338.62C177.375 338.66 177.038 338.704 176.424 338.746C175.811 338.799 174.917 338.795 173.819 338.717C171.623 338.568 168.588 337.965 165.501 336.587C162.418 335.197 159.949 333.331 158.377 331.79C157.588 331.021 156.991 330.358 156.623 329.864C156.246 329.377 156.055 329.097 156.086 329.073C156.166 329.005 157.034 330.047 158.659 331.486C160.278 332.925 162.727 334.693 165.742 336.052C168.761 337.4 171.709 338.054 173.86 338.306C176.014 338.56 177.369 338.515 177.373 338.62Z" fill="#455A64"/>
<path d="M110.112 326.14C110.171 326.172 109.674 327.286 108.605 328.939C107.54 330.591 105.853 332.752 103.65 334.803C101.44 336.849 99.1613 338.371 97.4338 339.31C95.7051 340.253 94.5581 340.666 94.531 340.605C94.4909 340.519 95.5706 339.973 97.2237 338.95C98.8769 337.931 101.076 336.383 103.249 334.371C105.415 332.354 107.123 330.275 108.263 328.702C109.405 327.13 110.029 326.093 110.112 326.14Z" fill="#455A64"/>
<path d="M85.3518 226.474C81.6395 237.292 82.0537 236.372 75.1176 268.699C73.8385 274.664 76.0958 283.987 81.4743 286.866C86.8515 289.746 96.4119 286.585 99.6121 281.392L104.765 232.596L85.3518 226.474Z" fill="#FFBF9D"/>
<path d="M174.797 285.107L174.654 259.399L174.756 256.879L200.849 250.789C200.849 250.789 195.727 233.911 191.028 215.774C188.315 205.301 179.283 200.037 177.103 198.901V198.887L176.626 198.664L176.621 198.661L151.51 188.032C146.44 193.442 139.045 197.781 131.929 195.702C128.037 194.566 124.043 191.692 121.603 188.651L104.675 194.459L104.674 194.466C100.331 196.054 95.7287 199.083 92.9746 203.952C89.4322 210.216 78.1195 238.944 77.9225 239.585L98.8828 241.467C98.8828 241.467 95.1635 309.453 96.4803 321.6C96.4803 321.6 101.57 325.12 114.418 325.726C140.461 326.956 179.225 325.105 179.225 325.105C178.618 321.182 177.982 314.631 177.623 311.311L174.797 285.107Z" fill="#FFC727"/>
<path d="M99.5955 216.148C99.7017 216.151 99.1447 232.366 98.3517 252.357C97.5588 272.356 96.8296 288.56 96.7245 288.555C96.6183 288.55 97.1753 272.34 97.9683 252.342C98.7612 232.349 99.4893 216.143 99.5955 216.148Z" fill="#263238"/>
<path d="M171.931 220.68C171.744 220.688 172.272 235.076 173.107 252.811C173.943 270.553 174.771 284.923 174.957 284.915C175.143 284.906 174.616 270.521 173.781 252.78C172.944 235.045 172.116 220.672 171.931 220.68Z" fill="#263238"/>
<path d="M200.967 263.024C200.117 256.644 199.411 251 199.411 251L178.546 255.844L179.437 259.205L163.308 242.822L160.754 243.041L152.635 251.485C152.635 251.485 159.712 266.433 163.829 272.254C169.184 279.825 177.605 291.368 189.134 290.399C199.792 289.504 202.492 274.474 200.967 263.024Z" fill="#FFBF9D"/>
<path d="M189.664 266.841C189.789 266.718 187.887 264.643 185.078 262.629C182.276 260.604 179.706 259.458 179.629 259.617C179.537 259.79 181.929 261.184 184.685 263.175C187.448 265.157 189.528 266.983 189.664 266.841Z" fill="#FFC727"/>
<path d="M135.15 221.44L142.317 217.78L151.615 220.736L156.225 224.982L163.308 242.822L168.984 250.003L158.97 263.05L152.637 251.486C152.637 251.486 147.259 249.137 145.109 245.746C142.959 242.353 141.989 240.508 141.989 240.508C141.989 240.508 138.884 239.017 138.309 237.586C137.734 236.155 137.76 235.041 137.76 235.041L139.333 232.747C139.333 232.747 139.18 230.616 139.806 229.82C140.433 229.024 141.044 228.836 141.044 228.836C141.044 228.836 140.583 226.901 141.307 226.208C142.032 225.516 145.6 224.241 145.6 224.241L142.473 222.465C142.473 222.465 135.535 224.615 135.15 221.44Z" fill="#FFBF9D"/>
<path d="M145.793 227.918C145.791 228.009 144.693 228.036 143.381 228.318C142.066 228.591 141.05 229.01 141.012 228.926C140.975 228.857 141.961 228.299 143.317 228.019C144.672 227.728 145.8 227.84 145.793 227.918Z" fill="#FFC727"/>
<path d="M143.641 231.922C143.637 232.012 142.7 232.009 141.568 232.184C140.435 232.351 139.541 232.631 139.51 232.547C139.478 232.474 140.352 232.055 141.522 231.881C142.693 231.701 143.651 231.843 143.641 231.922Z" fill="#FFC727"/>
<path d="M140.609 238.192C140.524 238.191 140.464 237.782 140.474 237.279C140.485 236.776 140.562 236.371 140.647 236.372C140.732 236.373 140.792 236.782 140.781 237.285C140.771 237.788 140.694 238.194 140.609 238.192Z" fill="#FFC727"/>
<path d="M141.981 240.126C141.894 240.128 141.949 239.257 141.319 238.474C140.711 237.673 139.854 237.518 139.876 237.433C139.88 237.397 140.103 237.375 140.444 237.482C140.782 237.587 141.222 237.854 141.561 238.286C141.899 238.719 142.051 239.21 142.071 239.564C142.092 239.921 142.017 240.132 141.981 240.126Z" fill="#FFC727"/>
<path d="M147.587 234.407C147.507 234.444 147.203 233.649 146.337 233.182C145.485 232.69 144.648 232.848 144.637 232.761C144.628 232.726 144.824 232.626 145.173 232.602C145.519 232.574 146.016 232.654 146.486 232.914C146.956 233.177 147.283 233.559 147.442 233.868C147.603 234.178 147.622 234.396 147.587 234.407Z" fill="#FFC727"/>
<path d="M150.852 230.441C150.77 230.475 150.489 229.734 149.707 229.249C148.936 228.743 148.146 228.801 148.142 228.711C148.136 228.675 148.33 228.601 148.659 228.607C148.986 228.611 149.444 228.719 149.871 228.992C150.297 229.265 150.588 229.635 150.729 229.93C150.872 230.224 150.888 230.43 150.852 230.441Z" fill="#FFC727"/>
<path d="M153.04 228.496C152.994 228.488 153.016 228.25 152.965 227.882C152.916 227.516 152.772 227.014 152.442 226.568C152.11 226.122 151.671 225.84 151.335 225.688C150.998 225.533 150.763 225.485 150.767 225.438C150.77 225.401 151.022 225.371 151.411 225.484C151.794 225.594 152.311 225.878 152.687 226.384C153.063 226.89 153.186 227.467 153.181 227.866C153.178 228.272 153.077 228.505 153.04 228.496Z" fill="#FFC727"/>
<path d="M150.006 223.833C150.012 223.942 148.503 223.965 146.696 224.24C144.885 224.521 143.52 225.155 143.481 225.066C143.44 225.005 144.784 224.228 146.647 223.937C147.57 223.785 148.414 223.76 149.022 223.76C149.629 223.763 150.004 223.792 150.006 223.833Z" fill="#FFC727"/>
<g opacity="0.3">
<path d="M129.59 264.123C129.327 262.051 129.028 259.884 127.82 258.18C125.723 255.223 121.604 254.592 117.982 254.769C114.362 254.947 110.606 255.655 107.198 254.42L97.0349 284.608C100.806 283.686 104.177 281.231 106.213 277.925C107.253 276.237 108.007 274.28 109.578 273.072C111.742 271.408 114.748 271.654 117.477 271.624C120.332 271.594 123.18 271.175 125.922 270.38C127.085 270.044 128.299 269.59 129.019 268.616C129.939 267.37 129.786 265.66 129.59 264.123Z" fill="black"/>
</g>
<path d="M103.407 228.787L106.565 262.38C106.739 264.242 107.463 265.54 108.643 266.248L129.017 265.816C129.847 265.066 130.755 262.668 130.575 260.105L128.318 227.949C128.182 226.017 127.46 224.62 126.587 224.6L105.125 224.104C104.032 224.08 103.183 226.397 103.407 228.787Z" fill="#263238"/>
<path d="M100.445 235.543C99.5837 234.547 99.6982 232.936 100.511 231.9C101.324 230.863 102.685 230.366 104.002 230.347C105.319 230.328 106.605 230.734 107.824 231.233C109.328 231.848 110.772 232.611 112.129 233.507C113.088 234.139 114.076 234.957 114.241 236.093C114.405 237.23 113.144 238.493 112.16 237.902C113.444 238.478 114.72 239.88 114.894 241.317C115.069 242.754 114.285 243.506 112.888 243.887C113.935 244.321 114.579 245.663 114.072 246.677C113.538 247.742 112.047 248.003 110.945 247.552C109.843 247.101 109.043 246.142 108.291 245.219C109.051 246.595 108.987 248.801 108.653 250.337C105.615 249.22 102.619 245.84 103.526 242.629C102.05 241.465 101.381 239.063 102.305 237.425C101.079 237.011 99.7218 235.095 99.848 233.806" fill="#FFBF9D"/>
<path d="M100.105 232.613L99.8622 246.974L96.1393 252.573L79.0576 267.841C79.0576 267.841 81.5911 288.594 89.2988 286.328C97.0066 284.063 98.8745 282.588 103.434 274.214C105.875 269.729 107.38 262.438 108.787 258.251C109.611 255.797 108.886 247.893 108.886 247.893L100.105 232.613Z" fill="#FFBF9D"/>
<path d="M112.861 243.901C112.826 243.939 112.352 243.506 111.558 242.857C110.765 242.225 109.61 241.349 108.109 240.99C107.366 240.814 106.624 240.798 105.985 240.944C105.344 241.088 104.809 241.375 104.417 241.683C103.624 242.312 103.435 242.964 103.379 242.933C103.362 242.927 103.384 242.764 103.507 242.494C103.629 242.226 103.867 241.858 104.265 241.5C104.662 241.147 105.224 240.814 105.913 240.642C106.602 240.468 107.399 240.477 108.186 240.663C109.777 241.047 110.951 241.992 111.713 242.676C112.478 243.382 112.889 243.872 112.861 243.901Z" fill="#FFC727"/>
<path d="M112.657 238.053C112.637 238.097 112.016 237.84 111.064 237.345C110.586 237.103 110.02 236.811 109.368 236.557C108.72 236.313 107.964 236.094 107.178 235.935C106.389 235.782 105.618 235.746 104.941 235.862C104.265 235.976 103.688 236.243 103.266 236.544C102.404 237.155 102.21 237.844 102.155 237.81C102.138 237.804 102.162 237.634 102.294 237.355C102.427 237.079 102.689 236.7 103.125 236.354C103.557 236.007 104.162 235.698 104.885 235.558C105.609 235.416 106.423 235.447 107.242 235.606C108.061 235.773 108.809 235.999 109.483 236.27C110.149 236.549 110.71 236.867 111.176 237.136C112.102 237.685 112.676 238.013 112.657 238.053Z" fill="#FFC727"/>
<path d="M80.8984 276.098C81.0353 276.085 80.1373 274.06 80.6872 270.747C80.9598 269.113 81.5993 267.212 82.705 265.317C83.8059 263.417 85.3871 261.558 87.2173 259.784C89.0546 258.012 90.9449 256.462 92.63 255.004C94.3186 253.55 95.7971 252.178 96.9464 250.934C98.0957 249.69 98.9229 248.592 99.4362 247.796C99.9507 247.002 100.173 246.526 100.147 246.51C100.106 246.485 99.8209 246.922 99.2569 247.669C98.694 248.418 97.8302 249.464 96.6585 250.658C95.4856 251.852 93.9952 253.18 92.2937 254.607C90.5957 256.039 88.6876 257.582 86.8256 259.377C84.9706 261.174 83.3634 263.085 82.2542 265.056C81.1415 267.022 80.522 268.995 80.2931 270.686C80.0677 272.383 80.2081 273.779 80.4241 274.703C80.5362 275.165 80.6388 275.519 80.7379 275.751C80.8253 275.985 80.8807 276.105 80.8984 276.098Z" fill="#FFC727"/>
</svg>
