<svg width="60" height="61" viewBox="0 0 60 61" fill="none" xmlns="http://www.w3.org/2000/svg">
<path d="M55 57.8636H12.5C7.325 57.8636 3.125 53.6636 3.125 48.4886V5.98865C3.125 4.96365 3.975 4.11365 5 4.11365C6.025 4.11365 6.875 4.96365 6.875 5.98865V48.4886C6.875 51.5886 9.4 54.1136 12.5 54.1136H55C56.025 54.1136 56.875 54.9636 56.875 55.9886C56.875 57.0136 56.025 57.8636 55 57.8636Z" fill="#263238"/>
<path d="M12.5 45.3637C12.075 45.3637 11.625 45.2137 11.275 44.9137C10.5 44.2387 10.4 43.0637 11.075 42.2637L22.55 28.8637C23.8 27.4137 25.6 26.5387 27.5 26.4637C29.4 26.4137 31.275 27.1137 32.625 28.4637L35 30.8387C35.625 31.4637 36.425 31.7637 37.325 31.7637C38.2 31.7387 39 31.3387 39.575 30.6637L51.05 17.2637C51.725 16.4887 52.9 16.3887 53.7 17.0637C54.475 17.7387 54.575 18.9137 53.9 19.7137L42.425 33.1137C41.175 34.5637 39.375 35.4387 37.475 35.5137C35.55 35.5637 33.7 34.8637 32.35 33.5137L30 31.1387C29.375 30.5137 28.55 30.1887 27.675 30.2137C26.8 30.2387 26 30.6387 25.425 31.3137L13.95 44.7137C13.55 45.1387 13.025 45.3637 12.5 45.3637Z" fill="#263238"/>
</svg>
