<svg width="87" height="87" viewBox="0 0 87 87" fill="none" xmlns="http://www.w3.org/2000/svg">
<path d="M50.4079 45.9615L47.1266 51.6448C46.5885 52.5769 45.3693 52.9036 44.4372 52.3654C43.5052 51.8273 43.1785 50.6081 43.7166 49.6761L46.9979 43.9928C50.4366 38.0367 48.3901 30.3989 42.434 26.9602C36.4779 23.5214 28.8401 25.5679 25.4014 31.524L18.8389 42.8906C15.4001 48.8467 17.4467 56.4845 23.4028 59.9232C25.9034 61.367 28.8477 61.8848 31.6988 61.4091C32.7675 61.238 33.7835 61.9458 33.9773 63.0277C34.1483 64.0964 33.4405 65.1123 32.3587 65.3061C28.6051 65.9276 24.7303 65.2363 21.434 63.3332C13.5911 58.8051 10.9008 48.7648 15.4289 40.9219L21.9914 29.5553C26.5195 21.7123 36.5598 19.0221 44.4028 23.5502C52.2457 28.0783 54.936 38.1186 50.4079 45.9615Z" fill="#263238"/>
<path d="M71.5711 46.0558L65.0086 57.4224C60.4804 65.2653 50.4402 67.9556 42.5972 63.4275C34.7543 58.8993 32.064 48.859 36.5921 41.0161L39.8734 35.3328C40.4115 34.4008 41.6307 34.0741 42.5627 34.6122C43.4948 35.1503 43.8215 36.3695 43.2833 37.3016L40.0021 42.9849C36.5633 48.9409 38.6099 56.5787 44.566 60.0175C50.522 63.4562 58.1598 61.4097 61.5986 55.4536L68.1611 44.087C71.5998 38.1309 69.5533 30.4931 63.5972 27.0544C61.0966 25.6106 58.1522 25.0929 55.3012 25.5686C54.2325 25.7396 53.2165 25.0318 53.0227 23.95C52.8289 22.8681 53.5594 21.8653 54.6413 21.6715C58.408 21.0273 62.2828 21.7186 65.5791 23.6217C73.4089 28.1725 76.0992 38.2128 71.5711 46.0558Z" fill="#263238"/>
</svg>
