<svg width="52" height="53" viewBox="0 0 52 53" fill="none" xmlns="http://www.w3.org/2000/svg">
<path d="M19.3483 5.32198H10.8767C6.50001 5.32198 4.33334 7.48864 4.33334 11.8653V20.3586C4.33334 24.822 6.50001 26.9886 10.8767 26.8803H19.37C23.8333 26.9886 26 24.822 25.8917 20.337V11.8653C26 7.48864 23.8333 5.32198 19.3483 5.32198ZM19.5217 22.1353C18.0483 22.1353 16.6183 21.572 15.4267 20.5753C14.0833 21.5503 12.4583 22.1353 10.7033 22.1353C9.81501 22.1353 9.07834 21.3986 9.07834 20.5103C9.07834 19.622 9.81501 18.8853 10.7033 18.8853C12.9133 18.8853 14.755 17.3686 15.4267 15.2886H10.7033C9.81501 15.2886 9.07834 14.552 9.07834 13.6636C9.07834 12.7753 9.81501 12.0386 10.7033 12.0386H13.4983C13.585 11.2153 14.2567 10.5653 15.1017 10.5653C15.9467 10.5653 16.6183 11.2153 16.705 12.0386H17.2683C17.29 12.0386 17.3117 12.0386 17.3117 12.0386H17.355H19.5C20.3883 12.0386 21.125 12.7753 21.125 13.6636C21.125 14.552 20.41 15.2886 19.5 15.2886H18.785C18.59 16.3286 18.1783 17.3036 17.6367 18.192C18.2217 18.6253 18.85 18.8853 19.5217 18.8853C20.41 18.8853 21.1467 19.622 21.1467 20.5103C21.1467 21.3986 20.41 22.1353 19.5217 22.1353Z" fill="#263238"/>
<path d="M19.5 50.2803C10.2483 50.2803 2.70834 42.7403 2.70834 33.4886C2.70834 32.6003 3.44501 31.8636 4.33334 31.8636C5.22168 31.8636 5.95834 32.6003 5.95834 33.4886C5.95834 39.902 10.4217 45.2753 16.4233 46.6836L15.8383 45.7086C15.3833 44.9286 15.6217 43.932 16.4017 43.477C17.16 43.022 18.1783 43.2603 18.6333 44.0403L20.9083 47.832C21.2117 48.3303 21.2117 48.9586 20.93 49.457C20.6267 49.9553 20.085 50.2803 19.5 50.2803Z" fill="#263238"/>
<path d="M47.6667 22.1136C46.7783 22.1136 46.0417 21.377 46.0417 20.4886C46.0417 14.0753 41.5783 8.70198 35.5767 7.29364L36.1617 8.26864C36.6167 9.04864 36.3783 10.0453 35.5983 10.5003C34.84 10.9553 33.8217 10.717 33.3667 9.93698L31.0917 6.14531C30.7883 5.64698 30.7883 5.01864 31.07 4.52031C31.3733 4.02198 31.915 3.69698 32.5 3.69698C41.7517 3.69698 49.2917 11.237 49.2917 20.4886C49.2917 21.377 48.555 22.1136 47.6667 22.1136Z" fill="#263238"/>
<path d="M36.66 26.6637C30.5933 26.6637 25.6533 31.582 25.6533 37.6703C25.6533 43.737 30.5717 48.677 36.66 48.677C42.7267 48.677 47.6667 43.7587 47.6667 37.6703C47.6667 31.582 42.7483 26.6637 36.66 26.6637ZM42.0333 42.892C41.2317 43.282 40.2567 42.9787 39.845 42.1553L39.4767 41.4187H33.865L33.4967 42.1553C33.215 42.7187 32.63 43.0437 32.045 43.0437C31.8067 43.0437 31.5467 42.9787 31.33 42.8703C30.5283 42.4587 30.2033 41.4837 30.5933 40.682L35.23 31.4303C35.5117 30.8887 36.075 30.542 36.6817 30.542C37.2883 30.542 37.8517 30.8887 38.1333 31.452L42.77 40.7037C43.16 41.5053 42.835 42.4803 42.0333 42.892Z" fill="#263238"/>
<path d="M35.49 38.1687H37.8517L36.66 35.807L35.49 38.1687Z" fill="#263238"/>
</svg>
